<mxfile host="app.diagrams.net" modified="2021-06-05T11:47:32.906Z" agent="5.0 (Macintosh; Intel Mac OS X 10_15_7) AppleWebKit/537.36 (KHTML, like Gecko) Chrome/91.0.4472.77 Safari/537.36" etag="ySykAlKfNnHnRsjZd2Jf" version="14.7.4" type="github">
  <diagram id="88APG9NWrLwdvw4txldC" name="Page-1">
    <mxGraphModel dx="2365" dy="868" grid="1" gridSize="10" guides="1" tooltips="1" connect="1" arrows="1" fold="1" page="1" pageScale="1" pageWidth="827" pageHeight="1169" math="0" shadow="0">
      <root>
        <mxCell id="0" />
        <mxCell id="1" parent="0" />
        <mxCell id="mNtGCUaEBBY1bRVAjnsv-18" value="" style="rounded=1;whiteSpace=wrap;html=1;fillColor=#f5f5f5;strokeColor=#666666;fontColor=#333333;" vertex="1" parent="1">
          <mxGeometry x="-290" y="130" width="1070" height="1470" as="geometry" />
        </mxCell>
        <mxCell id="mNtGCUaEBBY1bRVAjnsv-5" style="edgeStyle=orthogonalEdgeStyle;rounded=0;orthogonalLoop=1;jettySize=auto;html=1;" edge="1" parent="1" source="mNtGCUaEBBY1bRVAjnsv-2" target="mNtGCUaEBBY1bRVAjnsv-4">
          <mxGeometry relative="1" as="geometry" />
        </mxCell>
        <mxCell id="mNtGCUaEBBY1bRVAjnsv-2" value="客户端" style="ellipse;shape=cloud;whiteSpace=wrap;html=1;fillColor=#f8cecc;strokeColor=#b85450;" vertex="1" parent="1">
          <mxGeometry x="150" y="140" width="120" height="80" as="geometry" />
        </mxCell>
        <mxCell id="mNtGCUaEBBY1bRVAjnsv-4" value="25GB数据" style="rounded=1;whiteSpace=wrap;html=1;fillColor=#d5e8d4;strokeColor=#82b366;" vertex="1" parent="1">
          <mxGeometry x="150" y="260" width="120" height="60" as="geometry" />
        </mxCell>
        <mxCell id="mNtGCUaEBBY1bRVAjnsv-7" value="客户端" style="ellipse;shape=cloud;whiteSpace=wrap;html=1;fillColor=#f8cecc;strokeColor=#b85450;" vertex="1" parent="1">
          <mxGeometry x="140" y="370" width="120" height="80" as="geometry" />
        </mxCell>
        <mxCell id="mNtGCUaEBBY1bRVAjnsv-8" value="5GB数据" style="rounded=1;whiteSpace=wrap;html=1;fillColor=#d5e8d4;strokeColor=#82b366;" vertex="1" parent="1">
          <mxGeometry x="294" y="600" width="120" height="60" as="geometry" />
        </mxCell>
        <mxCell id="mNtGCUaEBBY1bRVAjnsv-9" value="5GB数据" style="rounded=1;whiteSpace=wrap;html=1;fillColor=#d5e8d4;strokeColor=#82b366;" vertex="1" parent="1">
          <mxGeometry x="140" y="600" width="120" height="60" as="geometry" />
        </mxCell>
        <mxCell id="mNtGCUaEBBY1bRVAjnsv-10" value="5GB数据" style="rounded=1;whiteSpace=wrap;html=1;fillColor=#d5e8d4;strokeColor=#82b366;" vertex="1" parent="1">
          <mxGeometry x="-180" y="600" width="120" height="60" as="geometry" />
        </mxCell>
        <mxCell id="mNtGCUaEBBY1bRVAjnsv-11" value="5GB数据" style="rounded=1;whiteSpace=wrap;html=1;fillColor=#d5e8d4;strokeColor=#82b366;" vertex="1" parent="1">
          <mxGeometry x="-20" y="600" width="120" height="60" as="geometry" />
        </mxCell>
        <mxCell id="mNtGCUaEBBY1bRVAjnsv-12" value="5GB数据" style="rounded=1;whiteSpace=wrap;html=1;fillColor=#d5e8d4;strokeColor=#82b366;" vertex="1" parent="1">
          <mxGeometry x="450" y="600" width="120" height="60" as="geometry" />
        </mxCell>
        <mxCell id="mNtGCUaEBBY1bRVAjnsv-13" value="" style="endArrow=classic;html=1;entryX=0.5;entryY=0;entryDx=0;entryDy=0;exitX=0.55;exitY=0.95;exitDx=0;exitDy=0;exitPerimeter=0;" edge="1" parent="1" source="mNtGCUaEBBY1bRVAjnsv-7" target="mNtGCUaEBBY1bRVAjnsv-10">
          <mxGeometry width="50" height="50" relative="1" as="geometry">
            <mxPoint x="20" y="520" as="sourcePoint" />
            <mxPoint x="70" y="470" as="targetPoint" />
          </mxGeometry>
        </mxCell>
        <mxCell id="mNtGCUaEBBY1bRVAjnsv-14" value="" style="endArrow=classic;html=1;entryX=0.5;entryY=0;entryDx=0;entryDy=0;exitX=0.55;exitY=0.95;exitDx=0;exitDy=0;exitPerimeter=0;" edge="1" parent="1" source="mNtGCUaEBBY1bRVAjnsv-7" target="mNtGCUaEBBY1bRVAjnsv-11">
          <mxGeometry width="50" height="50" relative="1" as="geometry">
            <mxPoint x="150" y="550" as="sourcePoint" />
            <mxPoint x="200" y="500" as="targetPoint" />
          </mxGeometry>
        </mxCell>
        <mxCell id="mNtGCUaEBBY1bRVAjnsv-15" value="" style="endArrow=classic;html=1;entryX=0.5;entryY=0;entryDx=0;entryDy=0;exitX=0.55;exitY=0.95;exitDx=0;exitDy=0;exitPerimeter=0;" edge="1" parent="1" source="mNtGCUaEBBY1bRVAjnsv-7" target="mNtGCUaEBBY1bRVAjnsv-9">
          <mxGeometry width="50" height="50" relative="1" as="geometry">
            <mxPoint x="200" y="530" as="sourcePoint" />
            <mxPoint x="250" y="480" as="targetPoint" />
          </mxGeometry>
        </mxCell>
        <mxCell id="mNtGCUaEBBY1bRVAjnsv-16" value="" style="endArrow=classic;html=1;entryX=0.5;entryY=0;entryDx=0;entryDy=0;exitX=0.55;exitY=0.95;exitDx=0;exitDy=0;exitPerimeter=0;" edge="1" parent="1" source="mNtGCUaEBBY1bRVAjnsv-7" target="mNtGCUaEBBY1bRVAjnsv-8">
          <mxGeometry width="50" height="50" relative="1" as="geometry">
            <mxPoint x="240" y="510" as="sourcePoint" />
            <mxPoint x="290" y="460" as="targetPoint" />
          </mxGeometry>
        </mxCell>
        <mxCell id="mNtGCUaEBBY1bRVAjnsv-17" value="" style="endArrow=classic;html=1;entryX=0.5;entryY=0;entryDx=0;entryDy=0;" edge="1" parent="1" target="mNtGCUaEBBY1bRVAjnsv-12">
          <mxGeometry width="50" height="50" relative="1" as="geometry">
            <mxPoint x="210" y="450" as="sourcePoint" />
            <mxPoint x="380" y="440" as="targetPoint" />
          </mxGeometry>
        </mxCell>
        <mxCell id="mNtGCUaEBBY1bRVAjnsv-19" value="&lt;b&gt;单实例&lt;/b&gt;" style="text;html=1;strokeColor=none;fillColor=none;align=center;verticalAlign=middle;whiteSpace=wrap;rounded=0;" vertex="1" parent="1">
          <mxGeometry x="340" y="220" width="120" height="60" as="geometry" />
        </mxCell>
        <mxCell id="mNtGCUaEBBY1bRVAjnsv-20" value="&lt;b&gt;切片集群&lt;/b&gt;" style="text;html=1;strokeColor=none;fillColor=none;align=center;verticalAlign=middle;whiteSpace=wrap;rounded=0;" vertex="1" parent="1">
          <mxGeometry x="460" y="460" width="120" height="60" as="geometry" />
        </mxCell>
        <mxCell id="mNtGCUaEBBY1bRVAjnsv-21" value="8GB RAM&lt;br&gt;50GB Disk" style="rounded=1;whiteSpace=wrap;html=1;fillColor=#d5e8d4;strokeColor=#82b366;" vertex="1" parent="1">
          <mxGeometry x="-190" y="870" width="120" height="60" as="geometry" />
        </mxCell>
        <mxCell id="mNtGCUaEBBY1bRVAjnsv-22" value="24GB RAM&lt;br&gt;150GB Disk" style="rounded=1;whiteSpace=wrap;html=1;fillColor=#d5e8d4;strokeColor=#82b366;" vertex="1" parent="1">
          <mxGeometry x="10" y="770" width="120" height="60" as="geometry" />
        </mxCell>
        <mxCell id="mNtGCUaEBBY1bRVAjnsv-23" value="8GB RAM&lt;br&gt;50GB Disk" style="rounded=1;whiteSpace=wrap;html=1;fillColor=#d5e8d4;strokeColor=#82b366;" vertex="1" parent="1">
          <mxGeometry x="10" y="940" width="120" height="60" as="geometry" />
        </mxCell>
        <mxCell id="mNtGCUaEBBY1bRVAjnsv-24" value="8GB RAM&lt;br&gt;50GB Disk" style="rounded=1;whiteSpace=wrap;html=1;fillColor=#d5e8d4;strokeColor=#82b366;" vertex="1" parent="1">
          <mxGeometry x="160" y="940" width="120" height="60" as="geometry" />
        </mxCell>
        <mxCell id="mNtGCUaEBBY1bRVAjnsv-25" value="8GB RAM&lt;br&gt;50GB Disk" style="rounded=1;whiteSpace=wrap;html=1;fillColor=#d5e8d4;strokeColor=#82b366;" vertex="1" parent="1">
          <mxGeometry x="310" y="940" width="120" height="60" as="geometry" />
        </mxCell>
        <mxCell id="mNtGCUaEBBY1bRVAjnsv-26" value="" style="shape=flexArrow;endArrow=classic;html=1;fillColor=#dae8fc;strokeColor=#6c8ebf;" edge="1" parent="1">
          <mxGeometry width="50" height="50" relative="1" as="geometry">
            <mxPoint x="-80" y="940" as="sourcePoint" />
            <mxPoint x="-10" y="980" as="targetPoint" />
          </mxGeometry>
        </mxCell>
        <mxCell id="mNtGCUaEBBY1bRVAjnsv-28" value="" style="shape=flexArrow;endArrow=classic;html=1;fillColor=#dae8fc;strokeColor=#6c8ebf;" edge="1" parent="1">
          <mxGeometry width="50" height="50" relative="1" as="geometry">
            <mxPoint x="-70" y="860" as="sourcePoint" />
            <mxPoint y="800" as="targetPoint" />
          </mxGeometry>
        </mxCell>
        <mxCell id="mNtGCUaEBBY1bRVAjnsv-29" value="纵向扩展" style="text;html=1;strokeColor=none;fillColor=none;align=center;verticalAlign=middle;whiteSpace=wrap;rounded=0;" vertex="1" parent="1">
          <mxGeometry x="-110" y="770" width="70" height="20" as="geometry" />
        </mxCell>
        <mxCell id="mNtGCUaEBBY1bRVAjnsv-30" value="横向扩展" style="text;html=1;strokeColor=none;fillColor=none;align=center;verticalAlign=middle;whiteSpace=wrap;rounded=0;" vertex="1" parent="1">
          <mxGeometry x="-102.5" y="990" width="55" height="20" as="geometry" />
        </mxCell>
        <mxCell id="mNtGCUaEBBY1bRVAjnsv-32" value="slot0" style="rounded=1;whiteSpace=wrap;html=1;fillColor=#d5e8d4;strokeColor=#82b366;" vertex="1" parent="1">
          <mxGeometry x="-180" y="1330" width="120" height="60" as="geometry" />
        </mxCell>
        <mxCell id="mNtGCUaEBBY1bRVAjnsv-33" value="slot1" style="rounded=1;whiteSpace=wrap;html=1;fillColor=#d5e8d4;strokeColor=#82b366;" vertex="1" parent="1">
          <mxGeometry x="-20" y="1330" width="120" height="60" as="geometry" />
        </mxCell>
        <mxCell id="mNtGCUaEBBY1bRVAjnsv-34" value="slot2" style="rounded=1;whiteSpace=wrap;html=1;fillColor=#d5e8d4;strokeColor=#82b366;" vertex="1" parent="1">
          <mxGeometry x="140" y="1330" width="120" height="60" as="geometry" />
        </mxCell>
        <mxCell id="mNtGCUaEBBY1bRVAjnsv-35" value="slot3" style="rounded=1;whiteSpace=wrap;html=1;fillColor=#d5e8d4;strokeColor=#82b366;" vertex="1" parent="1">
          <mxGeometry x="300" y="1330" width="120" height="60" as="geometry" />
        </mxCell>
        <mxCell id="mNtGCUaEBBY1bRVAjnsv-36" value="slot4" style="rounded=1;whiteSpace=wrap;html=1;fillColor=#d5e8d4;strokeColor=#82b366;" vertex="1" parent="1">
          <mxGeometry x="460" y="1330" width="120" height="60" as="geometry" />
        </mxCell>
        <mxCell id="mNtGCUaEBBY1bRVAjnsv-37" value="实例1&lt;br&gt;172.16.19.1" style="rounded=1;whiteSpace=wrap;html=1;fillColor=#ffe6cc;strokeColor=#d79b00;" vertex="1" parent="1">
          <mxGeometry x="-110" y="1200" width="120" height="60" as="geometry" />
        </mxCell>
        <mxCell id="mNtGCUaEBBY1bRVAjnsv-38" value="&lt;span&gt;实例2&lt;/span&gt;&lt;br&gt;&lt;span&gt;172.16.19.2&lt;/span&gt;" style="rounded=1;whiteSpace=wrap;html=1;fillColor=#ffe6cc;strokeColor=#d79b00;" vertex="1" parent="1">
          <mxGeometry x="220" y="1200" width="120" height="60" as="geometry" />
        </mxCell>
        <mxCell id="mNtGCUaEBBY1bRVAjnsv-45" style="edgeStyle=orthogonalEdgeStyle;rounded=0;orthogonalLoop=1;jettySize=auto;html=1;entryX=0.5;entryY=0;entryDx=0;entryDy=0;" edge="1" parent="1" source="mNtGCUaEBBY1bRVAjnsv-39" target="mNtGCUaEBBY1bRVAjnsv-36">
          <mxGeometry relative="1" as="geometry" />
        </mxCell>
        <mxCell id="mNtGCUaEBBY1bRVAjnsv-39" value="&lt;span&gt;实例3&lt;/span&gt;&lt;br&gt;&lt;span&gt;172.16.19.3&lt;/span&gt;" style="rounded=1;whiteSpace=wrap;html=1;fillColor=#ffe6cc;strokeColor=#d79b00;" vertex="1" parent="1">
          <mxGeometry x="460" y="1200" width="120" height="60" as="geometry" />
        </mxCell>
        <mxCell id="mNtGCUaEBBY1bRVAjnsv-40" value="" style="endArrow=classic;html=1;entryX=0.5;entryY=0;entryDx=0;entryDy=0;exitX=0.5;exitY=1;exitDx=0;exitDy=0;" edge="1" parent="1" source="mNtGCUaEBBY1bRVAjnsv-37" target="mNtGCUaEBBY1bRVAjnsv-32">
          <mxGeometry width="50" height="50" relative="1" as="geometry">
            <mxPoint x="-170" y="1290" as="sourcePoint" />
            <mxPoint x="-120" y="1240" as="targetPoint" />
          </mxGeometry>
        </mxCell>
        <mxCell id="mNtGCUaEBBY1bRVAjnsv-41" value="" style="endArrow=classic;html=1;entryX=0.5;entryY=0;entryDx=0;entryDy=0;exitX=0.5;exitY=1;exitDx=0;exitDy=0;" edge="1" parent="1" source="mNtGCUaEBBY1bRVAjnsv-37" target="mNtGCUaEBBY1bRVAjnsv-33">
          <mxGeometry width="50" height="50" relative="1" as="geometry">
            <mxPoint x="-50" y="1320" as="sourcePoint" />
            <mxPoint y="1270" as="targetPoint" />
          </mxGeometry>
        </mxCell>
        <mxCell id="mNtGCUaEBBY1bRVAjnsv-42" value="" style="endArrow=classic;html=1;entryX=0.5;entryY=0;entryDx=0;entryDy=0;exitX=0.5;exitY=1;exitDx=0;exitDy=0;" edge="1" parent="1">
          <mxGeometry width="50" height="50" relative="1" as="geometry">
            <mxPoint x="270" y="1260" as="sourcePoint" />
            <mxPoint x="200" y="1330" as="targetPoint" />
          </mxGeometry>
        </mxCell>
        <mxCell id="mNtGCUaEBBY1bRVAjnsv-47" value="客户端" style="ellipse;shape=cloud;whiteSpace=wrap;html=1;fillColor=#f8cecc;strokeColor=#b85450;" vertex="1" parent="1">
          <mxGeometry x="220" y="1030" width="120" height="80" as="geometry" />
        </mxCell>
        <mxCell id="mNtGCUaEBBY1bRVAjnsv-51" value="" style="endArrow=classic;html=1;entryX=0.5;entryY=0;entryDx=0;entryDy=0;exitX=0.55;exitY=0.95;exitDx=0;exitDy=0;exitPerimeter=0;" edge="1" parent="1" source="mNtGCUaEBBY1bRVAjnsv-47" target="mNtGCUaEBBY1bRVAjnsv-38">
          <mxGeometry width="50" height="50" relative="1" as="geometry">
            <mxPoint x="270" y="1150" as="sourcePoint" />
            <mxPoint x="320" y="1100" as="targetPoint" />
          </mxGeometry>
        </mxCell>
        <mxCell id="mNtGCUaEBBY1bRVAjnsv-52" value="请求slot3中的数据" style="text;html=1;strokeColor=none;fillColor=none;align=center;verticalAlign=middle;whiteSpace=wrap;rounded=0;" vertex="1" parent="1">
          <mxGeometry x="170" y="1140" width="100" height="20" as="geometry" />
        </mxCell>
        <mxCell id="mNtGCUaEBBY1bRVAjnsv-54" value="" style="endArrow=classic;html=1;entryX=0.725;entryY=0.95;entryDx=0;entryDy=0;entryPerimeter=0;exitX=0.75;exitY=0;exitDx=0;exitDy=0;" edge="1" parent="1" source="mNtGCUaEBBY1bRVAjnsv-38" target="mNtGCUaEBBY1bRVAjnsv-47">
          <mxGeometry width="50" height="50" relative="1" as="geometry">
            <mxPoint x="320" y="1210" as="sourcePoint" />
            <mxPoint x="370" y="1160" as="targetPoint" />
          </mxGeometry>
        </mxCell>
        <mxCell id="mNtGCUaEBBY1bRVAjnsv-55" value="返回moved&lt;br&gt;slot3 在实例3" style="text;html=1;strokeColor=none;fillColor=none;align=center;verticalAlign=middle;whiteSpace=wrap;rounded=0;" vertex="1" parent="1">
          <mxGeometry x="300" y="1140" width="100" height="20" as="geometry" />
        </mxCell>
        <mxCell id="mNtGCUaEBBY1bRVAjnsv-56" value="" style="endArrow=classic;html=1;entryX=0.5;entryY=0;entryDx=0;entryDy=0;exitX=0.5;exitY=1;exitDx=0;exitDy=0;" edge="1" parent="1" source="mNtGCUaEBBY1bRVAjnsv-39" target="mNtGCUaEBBY1bRVAjnsv-35">
          <mxGeometry width="50" height="50" relative="1" as="geometry">
            <mxPoint x="350" y="1300" as="sourcePoint" />
            <mxPoint x="360" y="1320" as="targetPoint" />
          </mxGeometry>
        </mxCell>
        <mxCell id="mNtGCUaEBBY1bRVAjnsv-57" value="" style="endArrow=classic;html=1;entryX=0.5;entryY=0;entryDx=0;entryDy=0;exitX=0.96;exitY=0.7;exitDx=0;exitDy=0;exitPerimeter=0;" edge="1" parent="1" source="mNtGCUaEBBY1bRVAjnsv-47" target="mNtGCUaEBBY1bRVAjnsv-39">
          <mxGeometry width="50" height="50" relative="1" as="geometry">
            <mxPoint x="410" y="1130" as="sourcePoint" />
            <mxPoint x="460" y="1080" as="targetPoint" />
          </mxGeometry>
        </mxCell>
        <mxCell id="mNtGCUaEBBY1bRVAjnsv-58" value="请求slot3中的数据" style="text;html=1;strokeColor=none;fillColor=none;align=center;verticalAlign=middle;whiteSpace=wrap;rounded=0;" vertex="1" parent="1">
          <mxGeometry x="430" y="1120" width="100" height="20" as="geometry" />
        </mxCell>
        <mxCell id="mNtGCUaEBBY1bRVAjnsv-59" value="" style="rounded=1;whiteSpace=wrap;html=1;fillColor=none;dashed=1;strokeColor=#9999FF;" vertex="1" parent="1">
          <mxGeometry x="120" y="1190" width="480" height="230" as="geometry" />
        </mxCell>
        <mxCell id="mNtGCUaEBBY1bRVAjnsv-60" value="负载均衡，slot3已经从实例2迁移到实例3" style="text;html=1;strokeColor=none;fillColor=none;align=center;verticalAlign=middle;whiteSpace=wrap;rounded=0;dashed=1;" vertex="1" parent="1">
          <mxGeometry x="250" y="1430" width="260" height="40" as="geometry" />
        </mxCell>
        <mxCell id="mNtGCUaEBBY1bRVAjnsv-61" value="" style="rounded=1;whiteSpace=wrap;html=1;dashed=1;strokeColor=#9999FF;fillColor=none;" vertex="1" parent="1">
          <mxGeometry x="-220" y="1160" width="890" height="320" as="geometry" />
        </mxCell>
        <mxCell id="mNtGCUaEBBY1bRVAjnsv-62" value="切片集群" style="text;html=1;strokeColor=none;fillColor=none;align=center;verticalAlign=middle;whiteSpace=wrap;rounded=0;dashed=1;" vertex="1" parent="1">
          <mxGeometry x="-180" y="1145" width="80" height="10" as="geometry" />
        </mxCell>
      </root>
    </mxGraphModel>
  </diagram>
</mxfile>
